#!OML:ASF H:\Terrain\Patient Classification 1\Walking\liu\liu.ASF
:FULLY-SPECIFIED
:DEGREES
17
root 15.209120 31.798000 -69.228996 14.186020 -8.344920 -10.459060
lowerback -12.386140 2.291960 3.210980
upperback -2.635540 2.695600 6.125600
thorax 4.153160 1.351026 4.721300
lowerneck -39.148800 -9.951480 -24.427799
upperneck 31.237600 -12.905620 30.419399
head 18.114679 -4.469080 12.872920
rclavicle 0.000000 0.000000
rhumerus -82.598000 38.791199 -176.076599
rradius 125.315804
rwrist -69.580399
rhand -61.186199 -64.885803
rfingers 14.250040
rthumb -7.780480 -124.774200
lclavicle 0.000000 0.000000
lhumerus -79.288803 -15.369480 179.887802
lradius 57.366001
lwrist 13.504660
lhand -14.625660 -47.047401
lfingers 14.250040
lthumb 37.139801 11.219780
rfemur 10.099140 12.835520 62.266800
rtibia 23.286200
rfoot -39.169201 -2.735940
rtoes -11.703740
lfemur -80.244400 -0.611190 -15.994540
ltibia 38.072201
lfoot -28.650600 30.081400
ltoes -25.884600
18
root 15.250380 31.785000 -68.946198 14.468540 -8.795300 -11.227320
lowerback -12.900580 2.342540 4.058880
upperback -2.590980 2.676880 6.403960
thorax 4.499400 1.345390 4.545940
lowerneck -39.234600 -9.905440 -24.484400
upperneck 31.108801 -12.749060 30.182199
head 18.053261 -4.420900 12.813980
rclavicle -0.000000 0.000000
rhumerus -82.926003 39.473000 -176.825195
rradius 125.633400
rwrist -70.184196
rhand -62.156601 -59.290199
rfingers 14.250040
rthumb -8.717500 -119.160400
lclavicle -0.000000 0.000000
lhumerus -79.634399 -15.714160 180.283798
lradius 57.127800
lwrist 13.420480
lhand -14.997680 -47.886799
lfingers 14.250040
lthumb 36.782001 10.414540
rfemur 12.002520 12.571960 62.781601
rtibia 21.091600
rfoot -38.105202 -2.188640
rtoes -13.345040
lfemur -80.824402 -2.274940 -13.729320
ltibia 37.597000
lfoot -30.687599 32.169800
ltoes -21.155001
19
root 15.273740 31.789000 -68.658798 14.243840 -10.103800 -12.186020
lowerback -12.754040 2.828520 5.436460
upperback -2.454980 3.237420 6.150580
thorax 4.589720 1.633782 3.556660
lowerneck -39.963001 -9.778360 -23.584600
upperneck 31.931601 -12.778120 29.822201
head 18.424820 -4.376580 12.550060
rclavicle 0.000000 -0.000000
rhumerus -83.136398 38.792599 -178.106003
rradius 125.475197
rwrist -69.819801
rhand -62.848400 -58.496201
rfingers 14.250040
rthumb -9.385540 -118.352203
lclavicle 0.000000 -0.000000
lhumerus -80.417603 -17.378000 180.285400
lradius 57.696201
lwrist 14.042800
lhand -15.241400 -46.592400
lfingers 14.250040
lthumb 36.547600 11.730880
rfemur 14.537000 13.433240 63.465401
rtibia 18.996960
rfoot -37.210201 -1.930434
rtoes -13.669760
lfemur -80.527802 -3.296680 -11.360400
ltibia 37.380001
lfoot -32.060799 34.470798
ltoes -21.126600
20
root 15.239460 31.798201 -68.413002 17.137320 -13.868980 -13.729180
lowerback -14.936780 4.250000 7.034460
upperback -3.366580 4.943500 5.639800
thorax 4.934320 2.489940 2.346600
lowerneck -40.100201 -9.495520 -22.110600
upperneck 32.433998 -12.795500 29.478399
head 18.562401 -4.313320 12.181880
rclavicle -0.000000 -0.000000
rhumerus -83.711601 37.935398 -180.057602
rradius 125.477997
rwrist -69.442001
rhand -61.650799 -63.900002
rfingers 14.250040
rthumb -8.229140 -123.779999
lclavicle -0.000000 -0.000000
lhumerus -81.555199 -19.032660 179.775208
lradius 58.403599
lwrist 14.412620
lhand -15.504860 -45.061199
lfingers 14.250040
lthumb 36.293999 13.285640
rfemur 14.070040 17.372740 64.171799
rtibia 16.129000
rfoot -34.587399 -2.023540
rtoes -14.652180
lfemur -82.527199 -0.966180 -8.488120
ltibia 37.150200
lfoot -32.830799 36.395802
ltoes -22.812201
21
root 15.282480 31.774599 -68.119797 17.295820 -14.121100 -13.696600
lowerback -15.314860 4.110240 7.437500
upperback -3.445140 4.712460 5.407800
thorax 5.087440 2.377640 1.872794
lowerneck -39.380402 -9.273220 -22.042200
upperneck 31.851601 -12.548340 29.673201
head 18.202959 -4.209960 12.257080
rclavicle -0.000000 0.000000
rhumerus -84.172798 38.359402 -181.182205
rradius 125.574203
rwrist -69.086197
rhand -59.921001 -68.874397
rfingers 14.250040
rthumb -6.558560 -128.783600
lclavicle -0.000000 0.000000
lhumerus -82.432800 -19.178379 179.706207
lradius 58.550999
lwrist 13.940540
lhand -16.229040 -43.928200
lfingers 14.250040
lthumb 35.597198 14.482800
rfemur 16.222561 17.184200 63.904400
rtibia 13.610100
rfoot -32.628799 -2.110720
rtoes -15.124100
lfemur -83.103996 -1.249140 -8.305600
ltibia 37.402199
lfoot -33.530800 36.427399
ltoes -24.827000
22
root 15.405320 31.720200 -67.782600 14.861180 -10.906040 -12.961580
lowerback -13.999860 2.793660 7.816840
upperback -2.591860 2.980900 5.247160
thorax 5.229920 1.527788 1.302714
lowerneck -39.599400 -9.344120 -22.500000
upperneck 31.711800 -12.586480 30.180799
head 18.237459 -4.199760 12.513520
rclavicle -0.000000 -0.000000
rhumerus -84.188599 38.642200 -181.606995
rradius 125.422997
rwrist -68.474800
rhand -59.709599 -64.372200
rfingers 14.250040
rthumb -6.354420 -124.284401
lclavicle -0.000000 -0.000000
lhumerus -82.575798 -19.254940 179.841797
lradius 57.854000
lwrist 13.175420
lhand -16.784060 -43.910999
lfingers 14.250040
lthumb 35.063202 14.547940
rfemur 21.398199 13.055600 63.468201
rtibia 10.440720
rfoot -31.711201 -2.171480
rtoes -15.988900
lfemur -82.084602 -3.470400 -10.143180
ltibia 37.286999
lfoot -32.563202 34.561600
ltoes -26.431801
23
root 15.364420 31.710400 -67.537003 18.197620 -15.743800 -15.231000
lowerback -16.884720 4.612580 8.830980
upperback -3.132880 5.130980 5.789840
thorax 6.332060 2.607880 1.612104
lowerneck -40.257000 -9.490100 -22.391199
upperneck 32.130798 -12.834720 30.285200
head 18.538719 -4.266700 12.512560
rclavicle -0.000000 0.000000
rhumerus -84.309196 38.606400 -182.212601
rradius 125.318199
rwrist -68.404800
rhand -60.075401 -58.722401
rfingers 14.250040
rthumb -6.707680 -118.629204
lclavicle -0.000000 0.000000
lhumerus -82.635597 -19.794580 179.947800
lradius 57.165001
lwrist 12.904820
lhand -17.110760 -44.806599
lfingers 14.250040
lthumb 34.748798 13.680320
rfemur 22.429600 18.182280 64.983398
rtibia 3.696600
rfoot -27.276199 -3.344360
rtoes -21.380199
lfemur -83.912003 1.218316 -7.346680
ltibia 37.373402
lfoot -31.835199 36.096802
ltoes -26.480400
24
root 15.500380 31.611200 -67.162201 14.482140 -10.901900 -13.562320
lowerback -14.499520 2.690800 8.375000
upperback -2.217140 2.743860 5.520200
thorax 5.899060 1.424384 1.270770
lowerneck -39.970402 -9.496920 -22.461000
upperneck 31.945400 -12.797620 30.144800
head 18.413460 -4.282020 12.471060
rclavicle -0.000000 -0.000000
rhumerus -84.888397 38.884998 -182.708801
rradius 125.289597
rwrist -68.070000
rhand -60.596001 -60.033798
rfingers 14.250040
rthumb -7.210540 -119.932404
lclavicle -0.000000 -0.000000
lhumerus -83.147797 -19.765961 180.317795
lradius 56.917801
lwrist 12.606320
lhand -17.257080 -44.862202
lfingers 14.250040
lthumb 34.608002 13.637100
rfemur 29.122000 12.095400 64.016800
rtibia 0.000000
rfoot -26.820000 -3.847560
rtoes -28.059601
lfemur -81.968803 -1.377088 -11.184700
ltibia 37.433399
lfoot -30.197599 32.223598
ltoes -26.872400
25
root 15.513100 31.620399 -66.889603 13.698820 -15.914820 -13.745200
lowerback -13.014900 4.113860 7.688520
upperback -2.011920 4.763300 5.822620
thorax 5.282240 2.416380 2.112520
lowerneck -39.535198 -9.397320 -22.637600
upperneck 31.478001 -12.547000 29.939199
head 18.133841 -4.220100 12.446000
rclavicle -0.000000 -0.000000
rhumerus -85.462997 39.327000 -183.108200
rradius 125.018997
rwrist -67.302399
rhand -60.695801 -60.951599
rfingers 14.250040
rthumb -7.306780 -120.848396
lclavicle -0.000000 -0.000000
lhumerus -83.577202 -19.031380 180.585403
lradius 56.254200
lwrist 11.392860
lhand -17.431700 -44.862999
lfingers 14.250040
lthumb 34.439800 13.651080
rfemur 31.158800 16.365820 63.624199
rtibia -0.000000
rfoot -25.335600 -3.904940
rtoes -29.453199
lfemur -79.244003 0.921366 -10.426980
ltibia 37.912399
lfoot -31.234600 34.039799
ltoes -25.024401
26
root 15.605820 31.607000 -66.571800 14.796240 -12.931600 -13.634540
lowerback -14.720880 3.032880 8.093880
upperback -2.344200 3.196340 5.980520
thorax 5.879600 1.642664 1.952770
lowerneck -39.631802 -9.287740 -22.871000
upperneck 31.425400 -12.300240 29.902000
head 18.101641 -4.120100 12.507760
rclavicle -0.000000 -0.000000
rhumerus -85.693604 39.802399 -183.445999
rradius 124.470200
rwrist -66.551201
rhand -60.320599 -60.050800
rfingers 14.250040
rthumb -6.944580 -119.953598
lclavicle -0.000000 -0.000000
lhumerus -83.768402 -18.320480 180.769196
lradius 55.289600
lwrist 10.017640
lhand -17.825680 -45.109600
lfingers 14.250040
lthumb 34.060600 13.437440
rfemur 30.940800 13.293360 63.165199
rtibia -0.000000
rfoot -24.677601 -3.172320
rtoes -32.456402
lfemur -81.580399 1.503060 -12.536180
ltibia 38.077400
lfoot -28.686199 30.632799
ltoes -28.238199
